<?xml version="1.0" encoding="utf-8"?>
<!-- Generator: Adobe Illustrator 16.0.0, SVG Export Plug-In . SVG Version: 6.00 Build 0)  -->
<!DOCTYPE svg PUBLIC "-//W3C//DTD SVG 1.1//EN" "http://www.w3.org/Graphics/SVG/1.1/DTD/svg11.dtd">
<svg version="1.1" id="Layer_1" xmlns="http://www.w3.org/2000/svg" xmlns:xlink="http://www.w3.org/1999/xlink" x="0px" y="0px"
	 width="1152px" height="288px" viewBox="0 0 1152 288" enable-background="new 0 0 1152 288" xml:space="preserve">
<rect fill="#010101" width="1152" height="288"/>
<g>
	<path fill="#9500FF" d="M417.08,167.239l-36.25-95.115h-55.933l60.796,141.263c1.124,2.429,1.661,4.962,1.661,7.749
		c0,3.625-1.207,6.872-3.687,9.91c-2.296,2.797-5.488,4.237-11.36,5.084h-29.865l-0.009,39.17h31.403
		c16.762,0,29.035-2.553,38.624-8.03c9.445-5.388,16.896-14.433,22.135-26.86l72.149-168.285h-54.652L417.08,167.239z"/>
	<path fill="#9500FF" d="M314.167,80.659c-5.735-4.379-12.687-7.597-20.66-9.572c-7.808-1.935-16.375-2.912-25.468-2.912
		c-12.22,0-22.968,2.604-31.955,7.74c-7.319,4.177-13.461,8.961-18.325,14.26c-4.758-7.6-11.256-13.11-19.37-16.419
		c-9.127-3.705-19.319-5.581-30.286-5.581c-11.477,0-21.841,2.191-30.799,6.513c-6.792,3.282-12.895,7.631-18.213,12.977v-15.54
		H69.335v152.074h52.359v-87.744c0-6.603,1.081-11.952,3.206-15.908c2.157-3.981,4.745-7.044,7.688-9.104
		c3.031-2.118,6.182-3.571,9.369-4.33c3.324-0.784,5.989-1.187,7.918-1.187c6.794,0,11.923,0.961,15.247,2.844
		c3.25,1.86,5.497,4.22,6.86,7.21c1.461,3.224,2.301,6.786,2.498,10.605c0.213,4.334,0.321,8.596,0.321,12.684v84.931h52.364
		v-84.362c0-4.334,0.362-8.667,1.091-12.886c0.685-3.981,2.061-7.582,4.096-10.694c1.997-3.042,4.798-5.547,8.33-7.45
		c3.552-1.911,8.372-2.881,14.326-2.881c5.998,0,10.747,0.845,14.104,2.502c3.26,1.62,5.741,3.801,7.365,6.469
		c1.706,2.785,2.758,6.158,3.145,10.005c0.425,4.212,0.639,8.76,0.639,13.523v85.774h52.367V123.466
		c0-9.798-1.627-18.344-4.832-25.412C324.558,90.936,319.97,85.088,314.167,80.659"/>
	<polygon fill="#9500FF" points="746.031,68.316 717.142,160.628 690.375,68.316 640.834,68.316 614.705,160.786 585.837,68.316 
		530.37,68.316 585.993,220.391 638.289,220.391 665.017,128.993 692.97,220.391 744.913,220.391 800.197,68.316 	"/>
	<path fill="#9500FF" d="M924.182,72.365c-7.385-3.107-15.656-5.216-24.588-6.287c-18.43-2.201-36.671-2.212-54.435,0.871
		c-9.481,1.645-18.151,4.445-25.774,8.334c-7.75,3.954-14.23,9.279-19.264,15.819c-5.124,6.672-8.074,15.112-8.764,25.099
		l-0.222,3.277h52.26l0.3-2.736c0.757-7.004,3.286-11.813,7.731-14.699c4.687-3.043,11.343-4.588,19.806-4.588
		c3.932,0,7.689,0.23,11.156,0.683c3.213,0.421,6.046,1.26,8.427,2.512c2.242,1.158,3.984,2.746,5.343,4.852
		c1.298,2.026,1.957,4.931,1.957,8.65l0.02,9.986c-17.865,0.608-50.963,5.937-52.37,6.166c-7.013,0.952-14.063,2.254-20.954,3.864
		c-7.124,1.662-13.557,4.206-19.122,7.557c-5.707,3.436-10.429,8.089-14.038,13.84c-3.656,5.834-5.512,13.271-5.512,22.104
		c0,7.998,1.605,15.04,4.758,20.926c3.164,5.875,7.59,10.802,13.172,14.627c5.488,3.768,11.961,6.583,19.24,8.355
		c7.154,1.743,14.962,2.63,23.194,2.63c10.619,0,21.172-1.366,31.375-4.057c8.199-2.164,15.639-5.65,22.194-10.395l0.007,10.641
		h50.396V109.059c0-9.546-2.542-17.384-7.562-23.293C938.068,80.061,931.764,75.55,924.182,72.365 M854.807,159.318
		c2.736-0.771,5.096-1.44,8.586-2.199c4.183-0.898,22.311-4.064,34.722-4.566v8.459c0,2.066-0.264,4.957-0.779,8.596
		c-0.476,3.286-1.8,6.617-3.933,9.906c-2.098,3.209-5.434,6.045-9.92,8.42c-4.534,2.392-11.171,3.601-19.737,3.601
		c-3.503,0-6.948-0.274-10.247-0.808c-3.116-0.513-5.852-1.401-8.141-2.638c-2.157-1.164-3.801-2.703-5.044-4.705
		c-1.204-1.939-1.813-4.438-1.813-7.416c0-3.161,0.609-5.751,1.821-7.699c1.282-2.074,2.94-3.74,5.067-5.1
		c2.225-1.428,4.902-2.58,7.963-3.436L854.807,159.318z"/>
	<rect x="964.212" y="12.7" fill="#9500FF" width="52.362" height="207.69"/>
	<rect x="1030.306" y="12.7" fill="#9500FF" width="52.359" height="207.69"/>
</g>
</svg>
